<svg xmlns="http://www.w3.org/2000/svg" xmlns:xlink="http://www.w3.org/1999/xlink">
    <defs>
        <filter id="Filter_0">
            <feFlood flood-color="rgb(168, 168, 168)" flood-opacity="1" result="floodOut" />
            <feComposite operator="atop" in="floodOut" in2="SourceGraphic" result="compOut" />
            <feBlend mode="normal" in="compOut" in2="SourceGraphic" />
        </filter>
    </defs>
    <g filter="url(#Filter_0)">
        <path fill-rule="evenodd"  fill="rgb(205, 205, 205)" d="M26.893,21.051 C26.203,22.049 24.831,22.300 23.832,21.608 L14.790,15.350 C14.150,14.909 13.818,14.189 13.843,13.465 C12.678,14.714 11.148,15.553 9.435,15.865 C7.330,16.249 5.204,15.790 3.449,14.575 C1.693,13.361 0.515,11.534 0.131,9.431 C-0.252,7.326 0.205,5.199 1.421,3.442 C3.932,-0.185 8.925,-1.094 12.553,1.416 C15.846,3.696 16.899,8.022 15.187,11.514 C15.856,11.233 16.649,11.288 17.293,11.733 L26.337,17.990 C27.336,18.682 27.586,20.052 26.893,21.051 ZM13.488,6.997 C13.221,5.530 12.400,4.256 11.176,3.410 C8.647,1.659 5.164,2.292 3.411,4.820 C1.662,7.352 2.295,10.834 4.825,12.583 C7.354,14.334 10.836,13.701 12.588,11.172 C13.436,9.947 13.755,8.465 13.488,6.997 Z"/>
    </g>
</svg>